# xmcd
#
# Track frame offsets: 
#        150
#        16843
#        30165
#        47850
#        63288
#        77388
#        96963
#        109580
#        123913
#        144000
#        161020
#        181779
#        196773
#        210092
#        222915
#
# Disc length: 3177 seconds
#
# Revision: 2
# Processed by: cddbd v1.5.2PL0 Copyright (c) Steve Scherf et al.
# Submitted via: ExactAudioCopyFreeDBPlugin 1.0
#
DISCID=ad0c670f
DTITLE=Professor Washboard, John Fohl, Flaky Jake - Rockin Swamp Blues
DYEAR=1998
DGENRE=Blues
TTITLE0=Not Fade Away
TTITLE1=Mind Your Own Business
TTITLE2=Got My Red Beans Cookin'
TTITLE3=El Rancho Grande
TTITLE4=Rockin Pneumonia And The Boogie Woogie Flu
TTITLE5=Iko Iko
TTITLE6=Talk To Your Daughter
TTITLE7=Dis Bye Bye 'Chere
TTITLE8=When You Go To New Orleans
TTITLE9=You Made Your Move Too Soon
TTITLE10=Hot Tamale Baby
TTITLE11=Tube Snake Boogie
TTITLE12=Got Love If You Want It
TTITLE13=No Money Down
TTITLE14=Sittin' On Top Of The World
EXTD=
EXTT0=
EXTT1=
EXTT2=
EXTT3=
EXTT4=
EXTT5=
EXTT6=
EXTT7=
EXTT8=
EXTT9=
EXTT10=
EXTT11=
EXTT12=
EXTT13=
EXTT14=
PLAYORDER=
